<svg width="119" height="63" viewBox="0 0 119 63" fill="none" xmlns="http://www.w3.org/2000/svg">
<path d="M1.99219 7.6875H6.62109C9.70703 7.6875 11.6953 8.60156 12.5859 10.4297C12.9062 11.1016 13.0664 11.8594 13.0664 12.7031C13.0664 13.5391 12.9531 14.2461 12.7266 14.8242C12.5078 15.4023 12.1992 15.8984 11.8008 16.3125C11.0352 17.1094 9.98047 17.6328 8.63672 17.8828C9.19141 19.5938 10.1328 20.7734 11.4609 21.4219C11.8984 21.6406 12.2656 21.7578 12.5625 21.7734C13.0625 21.7891 13.4141 21.7734 13.6172 21.7266V24H13.0898C11.332 24 9.83594 23.375 8.60156 22.125C7.51562 21.0391 6.78516 19.6719 6.41016 18.0234H4.33594V24H1.99219V7.6875ZM6.46875 16.1484C7.88281 16.1484 8.92969 15.875 9.60938 15.3281C10.2891 14.7812 10.6289 13.9297 10.6289 12.7734C10.6289 11.2344 9.91406 10.2422 8.48438 9.79688C7.98438 9.64062 7.37891 9.5625 6.66797 9.5625H4.33594V16.1484H6.46875ZM21.4805 24.1875C17.0586 24.1875 14.8477 22.0273 14.8477 17.707C14.8477 15.8477 15.4609 14.3594 16.6875 13.2422C17.7891 12.2266 19.0469 11.7188 20.4609 11.7188C22 11.7188 23.2031 12.2344 24.0703 13.2656C24.875 14.2266 25.2773 15.5117 25.2773 17.1211V18.0352H17.2852C17.2852 20.2461 18.1875 21.5977 19.9922 22.0898C20.4219 22.207 21.082 22.2656 21.9727 22.2656C22.8711 22.2656 23.75 22.1445 24.6094 21.9023V23.8828C23.75 24.0859 22.707 24.1875 21.4805 24.1875ZM22.9336 16.3125C22.9336 15.5625 22.7266 14.9297 22.3125 14.4141C21.8281 13.8203 21.1602 13.5234 20.3086 13.5234C19.4102 13.5234 18.6797 13.8086 18.1172 14.3789C17.6016 14.9102 17.3438 15.5547 17.3438 16.3125H22.9336ZM28.3945 21.8438C28.1367 21.3984 27.9297 20.875 27.7734 20.2734C27.625 19.6719 27.5508 18.8867 27.5508 17.918C27.5508 16.9492 27.7578 16.0586 28.1719 15.2461C28.5938 14.4258 29.1406 13.7539 29.8125 13.2305C31.1172 12.2227 32.7383 11.7188 34.6758 11.7188C35.6836 11.7188 36.4453 11.7422 36.9609 11.7891C36.9609 11.7891 37.3398 11.8281 38.0977 11.9062V24H35.9883L35.8945 22.6055C35.4258 23.2305 34.7109 23.6953 33.75 24C33.3828 24.1172 33.0039 24.1758 32.6133 24.1758C32.2305 24.1758 31.8516 24.1367 31.4766 24.0586C31.1016 23.9805 30.7266 23.8516 30.3516 23.6719C29.9844 23.4922 29.6328 23.2539 29.2969 22.957C28.9609 22.6523 28.6602 22.2812 28.3945 21.8438ZM35.7539 13.6289C35.2539 13.5664 34.7539 13.5352 34.2539 13.5352C33.7617 13.5352 33.2344 13.625 32.6719 13.8047C32.1094 13.9766 31.6289 14.25 31.2305 14.625C30.4023 15.4062 29.9883 16.5977 29.9883 18.1992C29.9883 19.7148 30.3438 20.8359 31.0547 21.5625C31.5938 22.1016 32.2422 22.3711 33 22.3711C33.9766 22.3711 34.7812 22.0156 35.4141 21.3047C35.5703 21.125 35.6836 20.9648 35.7539 20.8242V13.6289ZM43.6758 13.2305C44.3555 12.707 45.1172 12.3242 45.9609 12.082C46.8125 11.8398 47.5547 11.7188 48.1875 11.7188C48.8203 11.7188 49.3086 11.7344 49.6523 11.7656V6.5625H51.9844V24H49.8867L49.793 22.6055C49.3164 23.2383 48.5938 23.707 47.625 24.0117C47.25 24.1289 46.8672 24.1875 46.4766 24.1875C46.0938 24.1875 45.7148 24.1484 45.3398 24.0703C44.9648 23.9922 44.5898 23.8633 44.2148 23.6836C43.8477 23.4961 43.4961 23.2539 43.1602 22.957C42.8242 22.6523 42.5234 22.2812 42.2578 21.8438C41.6953 20.8828 41.4141 19.7461 41.4141 18.4336C41.4141 17.1211 41.6211 16.0586 42.0352 15.2461C42.457 14.4258 43.0039 13.7539 43.6758 13.2305ZM45.0938 14.625C44.6953 15 44.3867 15.4844 44.168 16.0781C43.957 16.6641 43.8516 17.3789 43.8516 18.2227C43.8516 19.0586 43.9531 19.75 44.1562 20.2969C44.3594 20.8359 44.6133 21.2578 44.918 21.5625C45.457 22.1094 46.1055 22.3828 46.8633 22.3828C47.8398 22.3828 48.6484 22.0234 49.2891 21.3047C49.4531 21.125 49.5703 20.9648 49.6406 20.8242V13.6172L49.4062 13.5938C49.0469 13.5469 48.6172 13.5234 48.1172 13.5234C47.625 13.5234 47.0977 13.6133 46.5352 13.793C45.9727 13.9648 45.4922 14.2422 45.0938 14.625ZM63.7148 7.6875H65.2148L71.0273 14.3672L76.8164 7.6875H78.3164V24H75.9727V11.5781L75.2812 12.5156L71.0273 17.4727L66.7734 12.5273L66.0586 11.5898V24H63.7148V7.6875ZM81.0469 17.9297C81.0469 16.0312 81.6523 14.4922 82.8633 13.3125C83.9961 12.2109 85.3984 11.6602 87.0703 11.6602C88.7109 11.6602 90.082 12.2109 91.1836 13.3125C92.3555 14.4844 92.9414 16.0234 92.9414 17.9297C92.9414 19.8281 92.3516 21.3594 91.1719 22.5234C90.0547 23.6328 88.6836 24.1875 87.0586 24.1875C85.4102 24.1875 84.0117 23.6328 82.8633 22.5234C81.6523 21.3594 81.0469 19.8281 81.0469 17.9297ZM83.4844 17.9297C83.4844 19.9297 84.125 21.2891 85.4062 22.0078C85.8594 22.2578 86.4023 22.3828 87.0352 22.3828C87.668 22.3828 88.2031 22.2578 88.6406 22.0078C89.0781 21.75 89.4375 21.4141 89.7188 21C90.2422 20.2031 90.5039 19.1797 90.5039 17.9297C90.5039 15.9453 89.875 14.5859 88.6172 13.8516C88.1797 13.5938 87.6562 13.4648 87.0469 13.4648C86.4375 13.4648 85.9062 13.5938 85.4531 13.8516C85.0078 14.1016 84.6406 14.4336 84.3516 14.8477C83.7734 15.6602 83.4844 16.6875 83.4844 17.9297ZM103.512 14.0508C103.082 13.9258 102.566 13.8633 101.965 13.8633C101.371 13.8633 100.883 13.9258 100.5 14.0508C100.117 14.168 99.7812 14.3125 99.4922 14.4844C98.9609 14.7969 98.5742 15.1484 98.332 15.5391V24H95.9883V11.9062H98.2383L98.332 13.582C98.918 12.8477 99.7734 12.2969 100.898 11.9297C101.305 11.7891 101.77 11.7188 102.293 11.7188C102.816 11.7188 103.223 11.7578 103.512 11.8359V14.0508ZM111.48 24.1875C107.059 24.1875 104.848 22.0273 104.848 17.707C104.848 15.8477 105.461 14.3594 106.688 13.2422C107.789 12.2266 109.047 11.7188 110.461 11.7188C112 11.7188 113.203 12.2344 114.07 13.2656C114.875 14.2266 115.277 15.5117 115.277 17.1211V18.0352H107.285C107.285 20.2461 108.188 21.5977 109.992 22.0898C110.422 22.207 111.082 22.2656 111.973 22.2656C112.871 22.2656 113.75 22.1445 114.609 21.9023V23.8828C113.75 24.0859 112.707 24.1875 111.48 24.1875ZM112.934 16.3125C112.934 15.5625 112.727 14.9297 112.312 14.4141C111.828 13.8203 111.16 13.5234 110.309 13.5234C109.41 13.5234 108.68 13.8086 108.117 14.3789C107.602 14.9102 107.344 15.5547 107.344 16.3125H112.934Z" fill="#141413"/>
<path d="M71.9949 47L60.7672 61.5893" stroke="#141413"/>
<path d="M50.6318 48.1241L61.0362 62.0042" stroke="#141413"/>
</svg>
